HIERARCHY
ROOT Root
{
  OFFSET 0.0 0.0 0.0
  CHANNELS 6 Xposition Yposition Zposition Zrotation Yrotation Xrotation
  JOINT Hips
  {
    OFFSET 0.0 100.0 0.0
    CHANNELS 6 Xposition Yposition Zposition Zrotation Yrotation Xrotation
    JOINT Spine1
    {
      OFFSET 5.003913 -0.037094 -0.013727
      CHANNELS 3 Zrotation Yrotation Xrotation
      JOINT Spine2
      {
        OFFSET 7.125363 -1e-06 0.0
        CHANNELS 3 Zrotation Yrotation Xrotation
        JOINT Chest
        {
          OFFSET 7.594027 1e-06 0.0
          CHANNELS 3 Zrotation Yrotation Xrotation
          JOINT Neck1
          {
            OFFSET 26.313086 -0.460272 -0.181672
            CHANNELS 3 Zrotation Yrotation Xrotation
            JOINT Neck2
            {
              OFFSET 8.045911 0.0 0.0
              CHANNELS 3 Zrotation Yrotation Xrotation
              JOINT Head
              {
                OFFSET 6.432774 0.0 0.0
                CHANNELS 3 Zrotation Yrotation Xrotation
                JOINT HeadEnd
                {
                  OFFSET 16.169773 0.06451 0.00362
                  CHANNELS 3 Zrotation Yrotation Xrotation
                }
                JOINT Jaw
                {
                  OFFSET 0.108741 3.12938 0.002639
                  CHANNELS 3 Zrotation Yrotation Xrotation
                }
                JOINT LeftEye
                {
                  OFFSET 4.45173 8.166359 3.206392
                  CHANNELS 3 Zrotation Yrotation Xrotation
                }
                JOINT RightEye
                {
                  OFFSET 4.436895 8.135758 -3.222429
                  CHANNELS 3 Zrotation Yrotation Xrotation
                }
              }
            }
          }
          JOINT LeftShoulder
          {
            OFFSET 23.218927 5.195579 1.621656
            CHANNELS 3 Zrotation Yrotation Xrotation
            JOINT LeftArm
            {
              OFFSET 15.902118 2e-06 -2e-06
              CHANNELS 3 Zrotation Yrotation Xrotation
              JOINT LeftForeArm
              {
                OFFSET 28.739307 0.0 -1e-06
                CHANNELS 3 Zrotation Yrotation Xrotation
                JOINT LeftHand
                {
                  OFFSET 27.093981 -4e-06 0.0
                  CHANNELS 3 Zrotation Yrotation Xrotation
                  JOINT LeftHandThumb1
                  {
                    OFFSET 2.276781 3.380274 0.83384
                    CHANNELS 3 Zrotation Yrotation Xrotation
                    JOINT LeftHandThumb2
                    {
                      OFFSET 4.705309 -1e-06 -1e-06
                      CHANNELS 3 Zrotation Yrotation Xrotation
                      JOINT LeftHandThumb3
                      {
                        OFFSET 2.798515 0.0 3e-06
                        CHANNELS 3 Zrotation Yrotation Xrotation
                        JOINT LeftHandThumbEnd
                        {
                          OFFSET 3.180793 4e-06 -4e-06
                          CHANNELS 3 Zrotation Yrotation Xrotation
                        }
                      }
                    }
                  }
                  JOINT LeftHandIndex1
                  {
                    OFFSET 3.247786 2.352677 0.137192
                    CHANNELS 3 Zrotation Yrotation Xrotation
                    JOINT LeftHandIndex2
                    {
                      OFFSET 6.367095 1e-06 0.0
                      CHANNELS 3 Zrotation Yrotation Xrotation
                      JOINT LeftHandIndex3
                      {
                        OFFSET 3.662364 0.0 0.0
                        CHANNELS 3 Zrotation Yrotation Xrotation
                        JOINT LeftHandIndex4
                        {
                          OFFSET 2.329242 4e-06 -4e-06
                          CHANNELS 3 Zrotation Yrotation Xrotation
                          JOINT LeftHandIndexEnd
                          {
                            OFFSET 2.767823 1e-06 0.0
                            CHANNELS 3 Zrotation Yrotation Xrotation
                          }
                        }
                      }
                    }
                  }
                  JOINT LeftHandMiddle1
                  {
                    OFFSET 3.163612 0.945023 -0.406112
                    CHANNELS 3 Zrotation Yrotation Xrotation
                    JOINT LeftHandMiddle2
                    {
                      OFFSET 6.276789 3e-06 0.0
                      CHANNELS 3 Zrotation Yrotation Xrotation
                      JOINT LeftHandMiddle3
                      {
                        OFFSET 4.35652 -1e-06 4e-06
                        CHANNELS 3 Zrotation Yrotation Xrotation
                        JOINT LeftHandMiddle4
                        {
                          OFFSET 2.996877 0.0 8e-06
                          CHANNELS 3 Zrotation Yrotation Xrotation
                          JOINT LeftHandMiddleEnd
                          {
                            OFFSET 2.323256 3e-06 -4e-06
                            CHANNELS 3 Zrotation Yrotation Xrotation
                          }
                        }
                      }
                    }
                  }
                  JOINT LeftHandRing1
                  {
                    OFFSET 2.882606 -0.309162 0.107445
                    CHANNELS 3 Zrotation Yrotation Xrotation
                    JOINT LeftHandRing2
                    {
                      OFFSET 6.033198 0.0 4e-06
                      CHANNELS 3 Zrotation Yrotation Xrotation
                      JOINT LeftHandRing3
                      {
                        OFFSET 4.350578 3e-06 0.0
                        CHANNELS 3 Zrotation Yrotation Xrotation
                        JOINT LeftHandRing4
                        {
                          OFFSET 2.651321 2e-06 -7e-06
                          CHANNELS 3 Zrotation Yrotation Xrotation
                          JOINT LeftHandRingEnd
                          {
                            OFFSET 1.937663 1e-06 -4e-06
                            CHANNELS 3 Zrotation Yrotation Xrotation
                          }
                        }
                      }
                    }
                  }
                  JOINT LeftHandPinky1
                  {
                    OFFSET 2.865315 -1.525436 0.575687
                    CHANNELS 3 Zrotation Yrotation Xrotation
                    JOINT LeftHandPinky2
                    {
                      OFFSET 5.54936 1e-06 -8e-06
                      CHANNELS 3 Zrotation Yrotation Xrotation
                      JOINT LeftHandPinky3
                      {
                        OFFSET 3.070974 0.0 -4e-06
                        CHANNELS 3 Zrotation Yrotation Xrotation
                        JOINT LeftHandPinky4
                        {
                          OFFSET 1.549672 1e-06 0.0
                          CHANNELS 3 Zrotation Yrotation Xrotation
                          JOINT LeftHandPinkyEnd
                          {
                            OFFSET 1.952123 0.0 0.0
                            CHANNELS 3 Zrotation Yrotation Xrotation
                          }
                        }
                      }
                    }
                  }
                }
              }
            }
          }
          JOINT RightShoulder
          {
            OFFSET 23.161716 5.296122 -1.380114
            CHANNELS 3 Zrotation Yrotation Xrotation
            JOINT RightArm
            {
              OFFSET -16.027195 -2e-06 1.1e-05
              CHANNELS 3 Zrotation Yrotation Xrotation
              JOINT RightForeArm
              {
                OFFSET -28.736639 4e-06 2e-06
                CHANNELS 3 Zrotation Yrotation Xrotation
                JOINT RightHand
                {
                  OFFSET -27.133619 6e-06 0.0
                  CHANNELS 3 Zrotation Yrotation Xrotation
                  JOINT RightHandThumb1
                  {
                    OFFSET -2.274328 -3.351035 -0.83067
                    CHANNELS 3 Zrotation Yrotation Xrotation
                    JOINT RightHandThumb2
                    {
                      OFFSET -4.703594 -3e-06 2e-06
                      CHANNELS 3 Zrotation Yrotation Xrotation
                      JOINT RightHandThumb3
                      {
                        OFFSET -2.794935 -4e-06 -3e-06
                        CHANNELS 3 Zrotation Yrotation Xrotation
                        JOINT RightHandThumbEnd
                        {
                          OFFSET -3.183852 4e-06 1e-06
                          CHANNELS 3 Zrotation Yrotation Xrotation
                        }
                      }
                    }
                  }
                  JOINT RightHandIndex1
                  {
                    OFFSET -3.253496 -2.33755 -0.127667
                    CHANNELS 3 Zrotation Yrotation Xrotation
                    JOINT RightHandIndex2
                    {
                      OFFSET -6.344434 0.0 0.0
                      CHANNELS 3 Zrotation Yrotation Xrotation
                      JOINT RightHandIndex3
                      {
                        OFFSET -3.654871 0.0 -8e-06
                        CHANNELS 3 Zrotation Yrotation Xrotation
                        JOINT RightHandIndex4
                        {
                          OFFSET -2.327586 -1e-06 0.0
                          CHANNELS 3 Zrotation Yrotation Xrotation
                          JOINT RightHandIndexEnd
                          {
                            OFFSET -2.770001 3e-06 8e-06
                            CHANNELS 3 Zrotation Yrotation Xrotation
                          }
                        }
                      }
                    }
                  }
                  JOINT RightHandMiddle1
                  {
                    OFFSET -3.168223 -0.944764 0.411762
                    CHANNELS 3 Zrotation Yrotation Xrotation
                    JOINT RightHandMiddle2
                    {
                      OFFSET -6.266691 -1e-06 -4e-06
                      CHANNELS 3 Zrotation Yrotation Xrotation
                      JOINT RightHandMiddle3
                      {
                        OFFSET -4.348901 0.0 0.0
                        CHANNELS 3 Zrotation Yrotation Xrotation
                        JOINT RightHandMiddle4
                        {
                          OFFSET -3.00024 2e-06 -4e-06
                          CHANNELS 3 Zrotation Yrotation Xrotation
                          JOINT RightHandMiddleEnd
                          {
                            OFFSET -2.321477 -4e-06 -4e-06
                            CHANNELS 3 Zrotation Yrotation Xrotation
                          }
                        }
                      }
                    }
                  }
                  JOINT RightHandRing1
                  {
                    OFFSET -2.885654 0.293261 -0.119232
                    CHANNELS 3 Zrotation Yrotation Xrotation
                    JOINT RightHandRing2
                    {
                      OFFSET -6.032835 -1e-06 -4e-06
                      CHANNELS 3 Zrotation Yrotation Xrotation
                      JOINT RightHandRing3
                      {
                        OFFSET -4.33881 0.0 -4e-06
                        CHANNELS 3 Zrotation Yrotation Xrotation
                        JOINT RightHandRing4
                        {
                          OFFSET -2.654903 -4e-06 -4e-06
                          CHANNELS 3 Zrotation Yrotation Xrotation
                          JOINT RightHandRingEnd
                          {
                            OFFSET -1.935122 0.0 4e-06
                            CHANNELS 3 Zrotation Yrotation Xrotation
                          }
                        }
                      }
                    }
                  }
                  JOINT RightHandPinky1
                  {
                    OFFSET -2.866241 1.503904 -0.60527
                    CHANNELS 3 Zrotation Yrotation Xrotation
                    JOINT RightHandPinky2
                    {
                      OFFSET -5.553177 -2e-06 0.0
                      CHANNELS 3 Zrotation Yrotation Xrotation
                      JOINT RightHandPinky3
                      {
                        OFFSET -3.062664 -1e-06 -4e-06
                        CHANNELS 3 Zrotation Yrotation Xrotation
                        JOINT RightHandPinky4
                        {
                          OFFSET -1.546529 2e-06 4e-06
                          CHANNELS 3 Zrotation Yrotation Xrotation
                          JOINT RightHandPinkyEnd
                          {
                            OFFSET -1.952341 0.0 -4e-06
                            CHANNELS 3 Zrotation Yrotation Xrotation
                          }
                        }
                      }
                    }
                  }
                }
              }
            }
          }
        }
      }
    }
    JOINT LeftLeg
    {
      OFFSET -8.443107 2.567604 10.043214
      CHANNELS 3 Zrotation Yrotation Xrotation
      JOINT LeftShin
      {
        OFFSET 43.229198 1e-06 -1e-06
        CHANNELS 3 Zrotation Yrotation Xrotation
        JOINT LeftFoot
        {
          OFFSET 42.298611 1e-06 1e-06
          CHANNELS 3 Zrotation Yrotation Xrotation
          JOINT LeftToeBase
          {
            OFFSET 14.165858 1e-06 0.0
            CHANNELS 3 Zrotation Yrotation Xrotation
            JOINT LeftToeEnd
            {
              OFFSET 6.7141 -0.234461 0.0
              CHANNELS 3 Zrotation Yrotation Xrotation
            }
          }
        }
      }
    }
    JOINT RightLeg
    {
      OFFSET -8.303923 2.592729 -10.047278
      CHANNELS 3 Zrotation Yrotation Xrotation
      JOINT RightShin
      {
        OFFSET -43.369682 0.0 1e-06
        CHANNELS 3 Zrotation Yrotation Xrotation
        JOINT RightFoot
        {
          OFFSET -42.260784 4e-06 2e-06
          CHANNELS 3 Zrotation Yrotation Xrotation
          JOINT RightToeBase
          {
            OFFSET -14.222245 -2e-06 -1e-06
            CHANNELS 3 Zrotation Yrotation Xrotation
            JOINT RightToeEnd
            {
              OFFSET -6.660062 0.232574 -2e-06
              CHANNELS 3 Zrotation Yrotation Xrotation
            }
          }
        }
      }
    }
  }
}
MOTION
Frames: 4
Frame Time: 0.03333333333333333
0.0 0.0 0.0 0.0 -0.0 0.0 0.749041 89.986763 4.896884 92.065826 4.207838 90.38166 12.624433 0.890267 0.529515 -6.112887 0.18425 0.627168 24.271746 1.648687 1.442718 17.610771 7.205047 2.619038 -2.367133 -1.539704 -2.810346 -42.861145 -2.467368 -4.320769 6e-06 -0.0 -0.0 0.035185 -0.004772 0.237784 0.049277 -0.0716 0.252069 0.018662 0.061783 0.22675 -81.273727 -81.800781 99.001541 66.28891 -59.676388 -44.839272 98.854454 -0.189881 -0.276752 14.822629 2.310112 21.692617 17.636633 -26.322733 52.411209 -19.466669 -14.3956 29.410395 -1e-06 -8.774824 1e-06 15.557909 -17.903086 6.38093 -0.609776 -1.795652 -3.889329 -4.807088 -11.046813 -2.937852 5e-06 -20.976021 1e-06 -5.01997 -25.03356 -4.031883 6e-06 -1e-06 1e-06 -10.634537 -5.686969 -3.565587 10.573277 -17.922955 -3.113903 4e-06 -13.821214 3e-06 -0.501777 -31.181511 -4.027014 -11.77061 -59.337612 7.326487 -13.982717 -7.150197 -2.875044 13.772733 -8.401494 -3.218244 0.347737 -34.211555 0.771653 -0.963028 -17.733372 2.62102 -0.0 -0.0 -1e-06 -17.346422 -20.095221 -4.201784 21.757566 -1.638377 3.866428 2e-06 -6.338824 0.0 -1.697589 -22.591747 -6.194007 0.0 -5e-06 -2e-06 18.605831 -84.173714 -179.867325 70.486984 -52.653118 -51.213356 122.224022 1.94426 0.454009 10.240588 -26.16901 27.920401 22.182117 -20.375898 49.933331 -16.701818 -16.743532 28.47654 -1e-06 -12.690603 -1e-06 16.018806 -17.305651 2.748735 -0.105921 -1.513858 -4.275882 -5.039041 -5.61287 -2.953557 4e-06 -11.020528 -2e-06 -6.1113 -15.895336 -3.840473 -1e-06 -0.0 -2e-06 -10.283373 -5.680293 -4.341839 11.028296 -11.302406 -2.372636 -1.384268 -14.238582 -6.320121 -0.625437 -26.924192 -3.827602 -4.886044 -50.553482 -2.610142 -13.708527 -7.363479 -3.72094 18.141155 -14.052742 -3.242679 6e-06 -18.787271 -2e-06 -0.429712 -8.456045 2.555506 0.0 -0.0 0.0 -15.923539 -20.09449 -5.473588 30.419218 -7.190828 1.735926 3e-06 -8.162927 -1e-06 -1.861902 -22.861473 -6.167943 -0.0 -3e-06 1e-06 162.701279 2.944976 -7.642114 57.939716 0.126811 -0.166016 -101.589317 -2.836565 -0.25141 -7.372763 1.432729 2.099929 -0.999999 -0.0 -0.0 -39.590733 -5.836151 -12.500718 49.491131 0.146898 -0.035106 -72.997475 -0.164228 -4.910418 -8.823124 0.9004 1.62943 -1.000002 -0.0 1e-06 
0.0 0.0 0.0 0.0 -0.0 0.0 0.584978 89.90493 6.927305 92.296852 4.158468 91.489372 12.402659 0.952233 0.424391 -6.209721 0.236647 0.584306 24.032749 1.639265 1.240953 17.580898 7.658218 2.713029 -2.394445 -1.567361 -3.296237 -42.682842 -2.48032 -4.821788 6e-06 0.0 0.0 0.005756 -0.011732 0.210719 0.017134 -0.075858 0.218935 -0.010168 0.052661 0.203262 -79.371277 -81.82473 96.944092 66.54274 -59.553883 -44.810909 98.739548 -0.03675 -0.384197 14.524321 1.957087 21.389694 17.636631 -26.322737 52.411198 -19.466661 -14.395597 29.410389 -1e-06 -8.774821 1e-06 15.615074 -17.84997 6.379234 -0.609776 -1.795654 -3.889328 -4.807087 -11.04681 -2.937849 3e-06 -20.976019 3e-06 -5.019968 -25.03356 -4.031882 5e-06 0.0 0.0 -10.634533 -5.686971 -3.565587 10.573275 -17.922949 -3.113903 2e-06 -13.821211 2e-06 -0.501775 -31.181505 -4.027015 -11.763625 -59.405415 7.380523 -13.982712 -7.150198 -2.875042 13.77273 -8.401494 -3.218241 0.347733 -34.211555 0.771655 -0.963029 -17.733372 2.621019 -0.0 -0.0 -1e-06 -17.346418 -20.095219 -4.201779 21.757557 -1.638376 3.866426 0.0 -6.338824 0.0 -1.697588 -22.591743 -6.194005 0.0 -3e-06 -1e-06 22.271976 -83.893242 176.683151 69.345474 -52.977482 -50.705513 122.612495 1.784482 0.244241 9.585561 -25.499512 27.63201 22.182106 -20.375896 49.933319 -16.701817 -16.743536 28.476532 -4e-06 -12.690603 0.0 16.246469 -17.345833 2.673393 -0.10592 -1.513856 -4.275881 -5.039042 -5.612873 -2.953556 5e-06 -11.020525 -3e-06 -6.111298 -15.89533 -3.840474 -1e-06 -0.0 -1e-06 -10.283373 -5.68029 -4.341835 11.028299 -11.302408 -2.372638 -1.384268 -14.238579 -6.320121 -0.625436 -26.924189 -3.827599 -4.739109 -50.281555 -2.706746 -13.708528 -7.363476 -3.720935 18.141155 -14.052734 -3.242678 6e-06 -18.787268 -3e-06 -0.429712 -8.456042 2.555505 0.0 -0.0 -1e-06 -15.923538 -20.094482 -5.473583 30.419218 -7.190827 1.735923 3e-06 -8.162922 -2e-06 -1.861903 -22.861469 -6.16794 0.0 -3e-06 -0.0 164.153107 2.965806 -7.462407 58.011166 0.073597 -0.080849 -102.128365 -2.174631 -0.402923 -8.108444 1.480158 2.11163 -0.999998 0.0 -0.0 -38.645466 -6.58415 -13.111103 50.404572 0.118906 -0.056333 -74.585777 -0.95503 -3.920465 -8.600944 0.782926 1.634742 -1.000002 -1e-06 0.0 
0.0 0.0 0.0 0.0 -0.0 0.0 0.393716 89.759644 8.912513 92.369942 4.005856 92.547028 12.146542 0.971388 0.395551 -6.327454 0.274697 0.543725 23.773539 1.751987 1.008108 17.438711 8.003267 2.725173 -2.46402 -1.430151 -4.014003 -42.425739 -2.55626 -5.361306 6e-06 -0.0 0.0 -0.020254 -0.010592 0.204455 -0.025975 -0.080502 0.214974 -0.050774 0.059671 0.194486 -78.695969 -81.933769 96.014809 66.296455 -59.408257 -43.850304 98.714272 0.465713 -0.562317 14.063656 1.627476 21.363104 17.636623 -26.322721 52.41119 -19.466665 -14.395597 29.410395 -1e-06 -8.774822 1e-06 15.496651 -17.812599 6.42054 -0.609777 -1.795653 -3.889327 -4.807087 -11.046811 -2.937852 4e-06 -20.976015 -1e-06 -5.019966 -25.03356 -4.031884 5e-06 0.0 0.0 -10.634533 -5.686972 -3.565589 10.573277 -17.922947 -3.113904 3e-06 -13.821211 2e-06 -0.501773 -31.181505 -4.027017 -11.741125 -59.390209 7.367187 -13.982713 -7.150198 -2.875044 13.772729 -8.401491 -3.218242 0.347736 -34.211544 0.771652 -0.963026 -17.73337 2.621017 -0.0 -0.0 -1e-06 -17.346416 -20.095217 -4.201784 21.757557 -1.638373 3.866427 0.0 -6.338822 -1e-06 -1.697587 -22.591745 -6.194007 0.0 -5e-06 -1e-06 24.133991 -83.529617 174.936493 67.650871 -53.395115 -49.699059 123.025749 1.813831 0.254863 9.162298 -24.723032 27.862915 22.182104 -20.375887 49.933308 -16.701807 -16.743526 28.476526 -2e-06 -12.690599 -1e-06 15.930062 -17.34831 2.815362 -0.10592 -1.513856 -4.275881 -5.039039 -5.612867 -2.953556 4e-06 -11.020519 -3e-06 -6.111296 -15.89533 -3.840469 0.0 -0.0 -1e-06 -10.283366 -5.680289 -4.341836 11.02829 -11.302402 -2.372634 -1.384267 -14.238572 -6.320117 -0.625436 -26.924177 -3.827599 -4.678166 -50.006493 -2.774593 -13.708521 -7.363474 -3.720937 18.141146 -14.052737 -3.242679 7e-06 -18.787266 -2e-06 -0.429712 -8.456041 2.555504 0.0 -0.0 -1e-06 -15.92353 -20.094477 -5.473584 30.419205 -7.190822 1.735924 2e-06 -8.162921 -2e-06 -1.861902 -22.861462 -6.167941 -1e-06 -3e-06 -1e-06 165.324875 2.599567 -7.428555 58.426571 0.064994 -0.03637 -102.460022 -1.511131 -0.403407 -8.907394 1.545128 2.126713 -0.999999 -0.0 0.0 -37.728264 -7.164954 -13.462782 51.815639 0.177169 -0.108717 -76.815147 -1.870225 -1.693339 -7.838679 0.71893 1.634593 -1.000003 -0.0 0.0 
0.0 0.0 0.0 0.0 -0.0 0.0 0.105684 89.565651 10.884005 92.175247 3.710406 93.72776 11.871306 1.075115 0.342461 -6.473995 0.305964 0.365481 23.582205 1.970298 0.762698 17.139292 8.409821 2.746774 -2.424517 -1.398682 -4.48112 -42.516335 -2.736008 -5.914535 6e-06 0.0 1e-06 -0.018344 -0.00942 0.198315 -0.021521 -0.071859 0.210385 -0.033667 0.052407 0.185829 -78.139763 -82.094528 95.188713 66.428902 -59.235832 -43.672703 98.653625 0.473838 -0.564311 13.793344 1.440508 21.553373 17.636625 -26.322735 52.411194 -19.466665 -14.395596 29.410393 0.0 -8.774821 1e-06 15.460058 -17.803036 6.391178 -0.609776 -1.795655 -3.889327 -4.807087 -11.046809 -2.937852 4e-06 -20.976015 2e-06 -5.019967 -25.033556 -4.031882 5e-06 -1e-06 0.0 -10.634533 -5.686971 -3.565586 10.573275 -17.922951 -3.113902 2e-06 -13.821208 3e-06 -0.501778 -31.181501 -4.027015 -11.690601 -59.435822 7.260927 -13.98271 -7.150198 -2.875041 13.772727 -8.401491 -3.218242 0.347733 -34.211544 0.771657 -0.96303 -17.733368 2.621019 -0.0 -0.0 -0.0 -17.346413 -20.095215 -4.201782 21.757555 -1.638375 3.866427 1e-06 -6.338822 1e-06 -1.697588 -22.591743 -6.194004 -0.0 -5e-06 -1e-06 25.795673 -83.141388 173.200089 65.929771 -53.899368 -49.05788 123.448158 1.596726 0.154381 8.910539 -24.063232 28.030848 22.182114 -20.375895 49.933319 -16.701813 -16.74353 28.476522 -2e-06 -12.6906 -1e-06 15.895807 -17.351875 2.799783 -0.105921 -1.513855 -4.275881 -5.039041 -5.612873 -2.953557 4e-06 -11.020526 -2e-06 -6.111298 -15.895338 -3.840471 -1e-06 1e-06 -1e-06 -10.283373 -5.680287 -4.34184 11.028295 -11.302409 -2.372633 -1.384269 -14.238581 -6.320121 -0.62544 -26.924192 -3.8276 -4.619875 -49.961082 -2.799899 -13.708529 -7.363478 -3.720937 18.141151 -14.052739 -3.242675 6e-06 -18.787271 -1e-06 -0.429711 -8.456044 2.555507 0.0 -0.0 0.0 -15.923539 -20.094482 -5.473585 30.419218 -7.190829 1.735926 3e-06 -8.162927 -1e-06 -1.861902 -22.861473 -6.167944 -0.0 -3e-06 0.0 166.166855 1.832029 -7.272835 59.149323 -0.004275 0.077657 -102.747643 -0.737489 -0.432144 -9.84505 1.625639 2.135127 -0.999999 -1e-06 0.0 -37.355824 -7.21982 -13.460163 53.703453 0.148229 -0.161008 -79.938232 -2.576388 -1.357725 -7.201239 0.684697 1.643093 -1.000002 -0.0 -0.0 
